# File created by Blade
# Date/Time:  Tue Apr 07 21:36:51 2015
#---------------------------------------------------------
:version 1.10
:name HOM
:units
  mass 1.0
  length 1.000000
  angle deg
:documentation
     Acclaim Skeleton File
:root
   axis xyz
   order TX TY TZ RX RY RZ
   position 0.000000 0.000000 0.000000
   orientation 0 0 0
:bonedata
   begin
      id 1
      name Spine_dum
      direction 0.000000 1.000000 0.000000
      length 4.885285
      axis 0.0 0.0 0.0 xyz
   end
   begin
      id 2
      name LeftUpLeg_dum
      direction 1.000000 0.000000 0.000000
      length 2.672193
      axis 0.0 0.0 0.0 xyz
   end
   begin
      id 3
      name RightUpLeg_dum
      direction -1.000000 0.000000 0.000000
      length 2.672193
      axis 0.0 0.0 0.0 xyz
   end
   begin
      id 4
      name Spine
      direction 0.000000 1.000000 0.000000
      length 0.000000
      axis 0.0 0.0 0.0 xyz
      dof rx ry rz
   end
   begin
      id 5
      name Spine_dum1
      direction 0.000000 1.000000 0.000000
      length 16.494159
      axis 0.0 0.0 0.0 xyz
   end
   begin
      id 6
      name Spine_dum2
      direction 0.000000 1.000000 0.000000
      length 10.663448
      axis 0.0 0.0 0.0 xyz
   end
   begin
      id 7
      name Spine_dum3
      direction 0.000000 1.000000 0.000000
      length 10.663448
      axis 0.0 0.0 0.0 xyz
   end
   begin
      id 8
      name Head
      direction 0.000000 1.000000 0.000000
      length 4.527550
      axis 0.0 0.0 0.0 xyz
      dof rx ry rz
   end
   begin
      id 9
      name LeftShoulder
      direction 1.000000 0.000000 0.000000
      length 7.531907
      axis 0.0 0.0 -90.0 xyz
      dof rx ry rz
   end
   begin
      id 10
      name LeftArm
      direction 1.000000 0.000000 0.000000
      length 10.229199
      axis 0.0 0.0 -90.0 xyz
      dof rx ry rz
   end
   begin
      id 11
      name LeftForeArm
      direction 1.000000 0.000000 0.000000
      length 8.673495
      axis 0.0 0.0 -90.0 xyz
      dof ry rz rx
   end
   begin
      id 12
      name LeftHand
      direction 0.000000 0.000000 0.000000
      length 0.000000
      axis 0.0 0.0 -90.0 xyz
      dof rx ry rz
   end
   begin
      id 13
      name LeftHand_dum1
      direction 0.000000 0.000000 0.000000
      length 0.000000
      axis 0.0 0.0 -90.0 xyz
   end
   begin
      id 14
      name LeftHand_dum2
      direction 1.000000 0.000000 0.000000
      length 3.937000
      axis 0.0 0.0 -90.0 xyz
   end
   begin
      id 15
      name LeftHandThumb1
      direction 0.000000 0.000000 1.000000
      length 3.937000
      axis 0.0 0.0 -90.0 xyz
      dof rx rz ry
   end
   begin
      id 16
      name RightShoulder
      direction -1.000000 0.000000 0.000000
      length 7.531907
      axis 0.0 0.0 90.0 xyz
      dof rx ry rz
   end
   begin
      id 17
      name RightArm
      direction -1.000000 0.000000 0.000000
      length 10.229199
      axis 0.0 0.0 90.0 xyz
      dof rx ry rz
   end
   begin
      id 18
      name RightForeArm
      direction -1.000000 0.000000 0.000000
      length 8.673495
      axis 0.0 0.0 90.0 xyz
      dof ry rz rx
   end
   begin
      id 19
      name RightHand
      direction 0.000000 0.000000 0.000000
      length 0.000000
      axis 0.0 0.0 90.0 xyz
      dof rx ry rz
   end
   begin
      id 20
      name RightHand_dum1
      direction 0.000000 0.000000 0.000000
      length 0.000000
      axis 0.0 0.0 90.0 xyz
   end
   begin
      id 21
      name RightHand_dum2
      direction -1.000000 0.000000 0.000000
      length 3.937000
      axis 0.0 0.0 90.0 xyz
   end
   begin
      id 22
      name RightHandThumb1
      direction 0.000000 0.000000 1.000000
      length 3.937000
      axis 0.0 0.0 90.0 xyz
      dof rx rz ry
   end
   begin
      id 23
      name LeftUpLeg
      direction 0.000000 -1.000000 0.000000
      length 16.263388
      axis 0.0 0.0 0.0 xyz
      dof rx ry rz
   end
   begin
      id 24
      name LeftLeg
      direction 0.000000 -1.000000 0.000000
      length 14.328163
      axis 0.0 0.0 0.0 xyz
      dof rx ry rz
   end
   begin
      id 25
      name LeftFoot
      direction 0.000000 -0.258819 0.965926
      length 5.031290
      axis 15.0 0.0 0.0 xyz
      dof rx ry rz
   end
   begin
      id 26
      name LeftToeBase
      direction 0.000000 0.000000 1.000000
      length 2.952750
      axis 0.0 0.0 0.0 xyz
      dof rx ry rz
   end
   begin
      id 27
      name RightUpLeg
      direction 0.000000 -1.000000 0.000000
      length 16.263388
      axis 0.0 0.0 0.0 xyz
      dof rx ry rz
   end
   begin
      id 28
      name RightLeg
      direction 0.000000 -1.000000 0.000000
      length 14.328163
      axis 0.0 0.0 0.0 xyz
      dof rx ry rz
   end
   begin
      id 29
      name RightFoot
      direction 0.000000 -0.258819 0.965926
      length 5.031290
      axis 15.0 0.0 0.0 xyz
      dof rx ry rz
   end
   begin
      id 30
      name RightToeBase
      direction 0.000000 0.000000 1.000000
      length 2.952750
      axis 0.0 0.0 0.0 xyz
      dof rx ry rz
   end
:hierarchy
   begin
      root Spine_dum LeftUpLeg_dum RightUpLeg_dum
      Spine_dum Spine
      LeftUpLeg_dum LeftUpLeg
      RightUpLeg_dum RightUpLeg
      Spine Spine_dum1 Spine_dum2 Spine_dum3
      Spine_dum1 Head
      Spine_dum2 LeftShoulder
      Spine_dum3 RightShoulder
      LeftShoulder LeftArm
      LeftArm LeftForeArm
      LeftForeArm LeftHand
      LeftHand LeftHand_dum1 LeftHand_dum2
      LeftHand_dum1 LeftHandThumb1
      RightShoulder RightArm
      RightArm RightForeArm
      RightForeArm RightHand
      RightHand RightHand_dum1 RightHand_dum2
      RightHand_dum1 RightHandThumb1
      LeftUpLeg LeftLeg
      LeftLeg LeftFoot
      LeftFoot LeftToeBase
      RightUpLeg RightLeg
      RightLeg RightFoot
      RightFoot RightToeBase
   end

# File created by Blade
# Date/Time:  Tue Apr 07 21:36:59 2015
# Frame Rate: 120.000 fps
#------------------------------------------------------
:FULLY-SPECIFIED
:DEGREES
94
root -3.631374 33.011283 8.071749 7.113261 -7.434543 -2.584129
Spine -5.454683 -9.175387 3.360102
Head 16.460930 -21.228285 3.942266
LeftShoulder -20.053795 47.689655 6.094362
LeftArm 55.946007 -22.019948 -78.789210
LeftForeArm 4.218115 -0.000000 -1.029707
LeftHand 6.551935 -0.000000 3.613908
LeftHandThumb1 -26.253704 0.000000 33.147579
RightShoulder -7.515772 -5.014104 -19.401294
RightArm 17.200088 -0.866081 68.698594
RightForeArm -9.006837 -0.000000 7.000090
RightHand 7.291644 -0.000000 -2.345704
RightHandThumb1 -24.326973 -0.000000 -32.862282
LeftUpLeg -5.399558 2.706190 5.174500
LeftLeg 14.385749 -0.000000 -0.000000
LeftFoot -15.125286 8.861753 -24.809792
LeftToeBase -8.582952 -0.000000 0.000000
RightUpLeg -2.137718 6.400175 4.235433
RightLeg 2.194137 -0.000000 -0.000000
RightFoot -7.284677 -12.231167 7.476676
RightToeBase -7.277077 -0.000000 0.000000
95
root -3.638397 33.006789 8.091745 7.036333 -8.185971 -2.672463
Spine -5.251261 -9.251419 3.523443
Head 16.722623 -21.516819 3.992620
LeftShoulder -20.123502 47.898793 5.639538
LeftArm 55.852505 -21.051314 -79.314582
LeftForeArm 4.209417 -0.000000 -0.850017
LeftHand 6.301273 -0.000000 3.795411
LeftHandThumb1 -26.253704 0.000000 33.147579
RightShoulder -7.524559 -5.149043 -19.300168
RightArm 17.423775 -1.366670 69.648189
RightForeArm -8.759065 -0.000000 6.975091
RightHand 7.194082 -0.000000 -1.905879
RightHandThumb1 -24.326973 -0.000000 -32.862282
LeftUpLeg -5.847190 2.780838 5.228134
LeftLeg 15.877018 -0.000000 -0.000000
LeftFoot -15.556140 8.898763 -25.268167
LeftToeBase -9.012752 -0.000000 0.000000
RightUpLeg -2.087270 6.686698 4.238293
RightLeg 2.327671 -0.000000 -0.000000
RightFoot -7.310961 -11.736279 7.625811
RightToeBase -7.323340 -0.000000 0.000000
96
root -3.643644 33.002534 8.112757 6.977995 -8.990185 -2.763427
Spine -5.062210 -9.301708 3.680682
Head 17.051712 -21.806347 4.012351
LeftShoulder -20.173551 48.083500 5.235848
LeftArm 55.617229 -19.927250 -79.575273
LeftForeArm 3.885684 -0.000000 -0.646347
LeftHand 6.270221 -0.000000 3.732776
LeftHandThumb1 -26.253704 0.000000 33.147579
RightShoulder -7.537988 -5.251055 -19.206595
RightArm 17.581360 -2.357505 70.429525
RightForeArm -8.058200 -0.000000 7.023134
RightHand 7.438402 -0.000000 -2.407898
RightHandThumb1 -24.326973 -0.000000 -32.862282
LeftUpLeg -6.289065 2.865120 5.292569
LeftLeg 17.352908 -0.000000 -0.000000
LeftFoot -15.926692 8.865154 -25.812522
LeftToeBase -9.583365 -0.000000 0.000000
RightUpLeg -2.036482 7.036780 4.229728
RightLeg 2.424074 -0.000000 -0.000000
RightFoot -7.317110 -11.252958 7.812082
RightToeBase -7.326539 -0.000000 0.000000
97
root -3.651374 32.997003 8.132210 6.917131 -9.788626 -2.877251
Spine -4.871316 -9.363968 3.835548
Head 17.424979 -22.089602 3.980752
LeftShoulder -20.192383 48.194909 4.916466
LeftArm 55.311603 -18.688080 -79.664114
LeftForeArm 3.393714 0.000000 -0.494799
LeftHand 6.182430 -0.000000 3.773294
LeftHandThumb1 -26.253704 0.000000 33.147579
RightShoulder -7.531688 -5.383418 -19.107793
RightArm 17.766740 -3.066339 71.292123
RightForeArm -7.679533 0.000000 7.081820
RightHand 7.221465 0.000000 -2.284559
RightHandThumb1 -24.326973 -0.000000 -32.862282
LeftUpLeg -6.778706 3.007050 5.393143
LeftLeg 18.940372 -0.000000 -0.000000
LeftFoot -16.255773 8.746467 -26.313608
LeftToeBase -9.994877 -0.000000 0.000000
RightUpLeg -1.972919 7.363393 4.258250
RightLeg 2.512417 -0.000000 -0.000000
RightFoot -7.335774 -10.793805 7.927239
RightToeBase -7.185725 -0.000000 0.000000
98
root -3.656240 32.992198 8.150989 6.868161 -10.640270 -2.982599
Spine -4.687292 -9.399009 3.967983
Head 17.836575 -22.381799 3.916949
LeftShoulder -20.221865 48.252645 4.627702
LeftArm 55.026955 -17.474672 -79.802283
LeftForeArm 2.830327 0.000000 -0.346212
LeftHand 5.989992 -0.000000 3.903935
LeftHandThumb1 -26.253704 0.000000 33.147579
RightShoulder -7.498742 -5.479531 -18.988428
RightArm 17.915389 -3.762449 72.116655
RightForeArm -7.266386 -0.000000 7.094500
RightHand 7.141182 -0.000000 -2.052035
RightHandThumb1 -24.326973 -0.000000 -32.862282
LeftUpLeg -7.274528 3.150040 5.495878
LeftLeg 20.524863 -0.000000 -0.000000
LeftFoot -16.497236 8.561529 -26.900358
LeftToeBase -10.645300 -0.000000 0.000000
RightUpLeg -1.927603 7.723424 4.268028
RightLeg 2.608362 -0.000000 -0.000000
RightFoot -7.336930 -10.322630 8.048973
RightToeBase -7.126422 -0.000000 0.000000
99
root -3.658462 32.987655 8.174741 6.819578 -11.503938 -3.095731
Spine -4.508120 -9.428794 4.115303
Head 18.265979 -22.655399 3.879138
LeftShoulder -20.206104 48.243743 4.407092
LeftArm 54.792014 -16.438670 -80.222695
LeftForeArm 2.489624 -0.000000 -0.255556
LeftHand 5.895398 -0.000000 4.045187
LeftHandThumb1 -26.253704 0.000000 33.147579
RightShoulder -7.466598 -5.587308 -18.883604
RightArm 18.022479 -4.433292 72.945550
RightForeArm -6.888984 0.000000 7.166643
RightHand 6.845266 0.000000 -1.677121
RightHandThumb1 -24.326973 -0.000000 -32.862282
LeftUpLeg -7.731352 3.265150 5.622717
LeftLeg 22.057151 -0.000000 -0.000000
LeftFoot -16.616419 8.292684 -27.432693
LeftToeBase -11.380332 -0.000000 0.000000
RightUpLeg -1.850866 8.077467 4.281490
RightLeg 2.654357 -0.000000 -0.000000
RightFoot -7.309924 -9.873580 8.132437
RightToeBase -7.070290 -0.000000 0.000000
100
root -3.658784 32.985193 8.194584 6.801086 -12.394798 -3.206016
Spine -4.338271 -9.482136 4.249530
Head 18.733286 -22.901887 3.846070
LeftShoulder -20.201370 48.186548 4.224393
LeftArm 54.615970 -15.609166 -80.992510
LeftForeArm 2.323917 -0.000000 -0.208480
LeftHand 5.960066 0.000000 4.438774
LeftHandThumb1 -26.253704 0.000000 33.147579
RightShoulder -7.413055 -5.646121 -18.743982
RightArm 18.083248 -5.156266 73.714377
RightForeArm -6.405366 0.000000 7.280497
RightHand 6.798005 -0.000000 -1.503905
RightHandThumb1 -24.326973 -0.000000 -32.862282
LeftUpLeg -8.190281 3.298769 5.759990
LeftLeg 23.526267 -0.000000 -0.000000
LeftFoot -16.676202 7.978036 -27.967572
LeftToeBase -12.044433 -0.000000 0.000000
RightUpLeg -1.811857 8.435667 4.280190
RightLeg 2.699529 -0.000000 -0.000000
RightFoot -7.238576 -9.403739 8.258874
RightToeBase -7.162015 -0.000000 0.000000
101
root -3.658399 32.983611 8.209124 6.825120 -13.305300 -3.276615
Spine -4.227471 -9.512169 4.318741
Head 19.212550 -23.154996 3.863109
LeftShoulder -20.086817 48.100664 4.175960
LeftArm 54.257742 -14.673220 -81.580845
LeftForeArm 1.749770 -0.000000 0.003917
LeftHand 6.052269 -0.000000 4.672334
LeftHandThumb1 -26.253704 0.000000 33.147579
RightShoulder -7.334572 -5.807095 -18.568606
RightArm 18.177143 -5.790263 74.478908
RightForeArm -5.763315 -0.000000 7.419691
RightHand 6.657572 -0.000000 -1.169185
RightHandThumb1 -24.326973 -0.000000 -32.862282
LeftUpLeg -8.899459 3.297212 5.816656
LeftLeg 25.363591 -0.000000 -0.000000
LeftFoot -16.796770 7.991632 -28.188850
LeftToeBase -12.322300 -0.000000 0.000000
RightUpLeg -2.005189 8.362212 4.236238
RightLeg 3.098583 -0.000000 -0.000000
RightFoot -7.261602 -8.534652 8.262514
RightToeBase -7.274746 -0.000000 0.000000
102
root -3.647956 32.984372 8.222355 6.831503 -14.251826 -3.292929
Spine -4.073400 -9.546926 4.330398
Head 19.666015 -23.366478 3.880076
LeftShoulder -20.001643 47.957404 4.122219
LeftArm 53.876528 -13.845822 -82.334390
LeftForeArm 1.120115 -0.000000 0.321122
LeftHand 6.164074 -0.000000 4.945643
LeftHandThumb1 -26.253704 0.000000 33.147579
RightShoulder -7.229619 -5.912694 -18.351908
RightArm 18.213214 -6.224111 75.244430
RightForeArm -5.478444 0.000000 7.602918
RightHand 6.785362 0.000000 -1.350866
RightHandThumb1 -24.326973 -0.000000 -32.862282
LeftUpLeg -9.392656 2.928532 5.857738
LeftLeg 26.776264 -0.000000 -0.000000
LeftFoot -16.869424 7.914310 -28.575924
LeftToeBase -12.840126 -0.000000 0.000000
RightUpLeg -2.127342 8.520735 4.115767
RightLeg 3.346740 -0.000000 -0.000000
RightFoot -7.269329 -7.878127 8.386736
RightToeBase -7.315509 -0.000000 0.000000
103
root -3.641565 32.984406 8.252332 6.787703 -15.248854 -3.374783
Spine -3.888094 -9.526512 4.412606
Head 20.220040 -23.602552 3.800261
LeftShoulder -19.937233 47.920472 4.046990
LeftArm 53.581367 -13.119631 -83.270623
LeftForeArm 0.598566 -0.000000 0.696532
LeftHand 6.311104 0.000000 5.035893
LeftHandThumb1 -26.253704 0.000000 33.147579
RightShoulder -7.166060 -6.069713 -18.176177
RightArm 18.261538 -6.506881 76.093476
RightForeArm -5.063766 -0.000000 7.737081
RightHand 6.614897 -0.000000 -1.082643
RightHandThumb1 -24.326973 -0.000000 -32.862282
LeftUpLeg -9.733795 2.905684 5.998197
LeftLeg 28.089060 -0.000000 -0.000000
LeftFoot -16.821783 7.576399 -28.549315
LeftToeBase -13.176620 -0.000000 0.000000
RightUpLeg -2.058004 8.799830 4.067662
RightLeg 3.394968 -0.000000 -0.000000
RightFoot -7.189896 -7.252291 8.520427
RightToeBase -7.099365 -0.000000 0.000000
104
root -3.626652 32.985673 8.276783 6.771013 -16.249997 -3.445151
Spine -3.721274 -9.594302 4.513563
Head 20.776429 -23.725397 3.646233
LeftShoulder -19.967695 47.927090 3.872161
LeftArm 53.335961 -12.485359 -84.292516
LeftForeArm 0.070278 -0.000000 1.136835
LeftHand 6.318578 -0.000000 5.120677
LeftHandThumb1 -26.253704 0.000000 33.147579
RightShoulder -6.997391 -6.240639 -18.060199
RightArm 18.358505 -6.702528 76.964100
RightForeArm -4.738603 -0.000000 7.832710
RightHand 6.527042 -0.000000 -0.597041
RightHandThumb1 -24.326973 -0.000000 -32.862282
LeftUpLeg -10.147100 2.782692 6.121961
LeftLeg 29.452084 -0.000000 -0.000000
LeftFoot -16.726885 7.227639 -28.420102
LeftToeBase -13.297528 -0.000000 0.000000
RightUpLeg -2.057643 9.162527 3.983116
RightLeg 3.489276 -0.000000 -0.000000
RightFoot -7.127822 -6.658097 8.740057
RightToeBase -6.916020 -0.000000 0.000000
